<?xml version="1.0" encoding="UTF-8" standalone="no"?>
<svg
   xmlns:dc="http://purl.org/dc/elements/1.1/"
   xmlns:cc="http://creativecommons.org/ns#"
   xmlns:rdf="http://www.w3.org/1999/02/22-rdf-syntax-ns#"
   xmlns:svg="http://www.w3.org/2000/svg"
   xmlns="http://www.w3.org/2000/svg"
   xmlns:sodipodi="http://sodipodi.sourceforge.net/DTD/sodipodi-0.dtd"
   xmlns:inkscape="http://www.inkscape.org/namespaces/inkscape"
   width="256mm"
   height="256mm"
   viewBox="0 0 256.00179 255.98947"
   version="1.1"
   id="svg8"
   inkscape:version="1.0.2 (e86c870879, 2021-01-15, custom)"
   sodipodi:docname="logo.svg">
  <defs
     id="defs2" />
  <sodipodi:namedview
     id="base"
     pagecolor="#ffffff"
     bordercolor="#666666"
     borderopacity="1.0"
     inkscape:pageopacity="0.0"
     inkscape:pageshadow="2"
     inkscape:zoom="0.35"
     inkscape:cx="-596.2871"
     inkscape:cy="521.10061"
     inkscape:document-units="mm"
     inkscape:current-layer="layer1"
     inkscape:document-rotation="0"
     showgrid="false"
     fit-margin-top="0"
     fit-margin-left="0"
     fit-margin-right="0"
     fit-margin-bottom="0"
     inkscape:window-width="1920"
     inkscape:window-height="1027"
     inkscape:window-x="-8"
     inkscape:window-y="-8"
     inkscape:window-maximized="1" />
  <metadata
     id="metadata5">
    <rdf:RDF>
      <cc:Work
         rdf:about="">
        <dc:format>image/svg+xml</dc:format>
        <dc:type
           rdf:resource="http://purl.org/dc/dcmitype/StillImage" />
        <dc:title></dc:title>
      </cc:Work>
    </rdf:RDF>
  </metadata>
  <g
     inkscape:label="Capa 1"
     inkscape:groupmode="layer"
     id="layer1"
     transform="translate(-1.0571499,-80.939774)">
    <g
       id="g946"
       transform="matrix(1.5571804,0,0,1.6770536,-0.5878623,-54.801133)"
       style="stroke:#ff0000;stroke-opacity:1;stroke-width:0.61881394;stroke-miterlimit:4;stroke-dasharray:none">
      <path
         style="fill:#000000;fill-opacity:1;stroke:#ff0000;stroke-width:0.61881394;stroke-linecap:butt;stroke-linejoin:miter;stroke-opacity:1;stroke-miterlimit:4;stroke-dasharray:none"
         d="M 60.670183,80.982666 6.1471992,227.17909 24.054257,201.78849 Z"
         id="path835" />
      <path
         style="fill:#000000;fill-opacity:1;stroke:#ff0000;stroke-width:0.61881394;stroke-linecap:butt;stroke-linejoin:miter;stroke-miterlimit:4;stroke-dasharray:none;stroke-opacity:1"
         d="M 1.0690781,175.86335 165.17257,160.09444 121.07309,171.31976 Z"
         id="path837" />
      <path
         style="fill:#000000;fill-opacity:1;stroke:#ff0000;stroke-width:0.61881394;stroke-linecap:butt;stroke-linejoin:miter;stroke-opacity:1;stroke-miterlimit:4;stroke-dasharray:none"
         d="M 69.490076,89.53529 58.799295,98.889724 165.43984,84.72444 Z"
         id="path839" />
      <path
         style="fill:#000000;fill-opacity:1;stroke:#ff0000;stroke-width:0.61881394;stroke-linecap:butt;stroke-linejoin:miter;stroke-opacity:1;stroke-miterlimit:4;stroke-dasharray:none"
         d="M 51.114468,152.7162 40.423687,162.07063 147.06424,147.90535 Z"
         id="path839-7" />
      <path
         style="fill:#000000;fill-opacity:1;stroke:#ff0000;stroke-width:0.61881394;stroke-linecap:butt;stroke-linejoin:miter;stroke-opacity:1;stroke-miterlimit:4;stroke-dasharray:none"
         d="m 70.826423,82.319012 40.357697,72.964578 20.31249,6.94901 z"
         id="path863" />
      <path
         style="fill:#000000;fill-opacity:1;stroke:#ff0000;stroke-width:0.61881394;stroke-linecap:butt;stroke-linejoin:miter;stroke-opacity:1;stroke-miterlimit:4;stroke-dasharray:none"
         d="M 32.473246,184.95051 58.131122,202.18939 40.090428,185.88596 Z"
         id="path911" />
      <path
         style="fill:#000000;fill-opacity:1;stroke:#ff0000;stroke-width:0.61881394;stroke-linecap:butt;stroke-linejoin:miter;stroke-opacity:1;stroke-miterlimit:4;stroke-dasharray:none"
         d="m 59.601105,209.53931 -26.192414,23.92062 11.091685,-3.4745 z"
         id="path915" />
      <path
         style="fill:#000000;fill-opacity:1;stroke:#ff0000;stroke-width:0.61881394;stroke-linecap:butt;stroke-linejoin:miter;stroke-opacity:1;stroke-miterlimit:4;stroke-dasharray:none"
         d="m 59.601105,209.53931 12.6953,20.71339 9.087165,2.67269 z"
         id="path917" />
      <path
         style="fill:#000000;fill-opacity:1;stroke:#ff0000;stroke-width:0.61881394;stroke-linecap:butt;stroke-linejoin:miter;stroke-opacity:1;stroke-miterlimit:4;stroke-dasharray:none"
         d="m 101.69605,218.09193 51.31575,-9.75534 -9.08716,7.08265 z"
         id="path919" />
      <path
         style="fill:#000000;fill-opacity:1;stroke:#ff0000;stroke-width:0.61881394;stroke-linecap:butt;stroke-linejoin:miter;stroke-opacity:1;stroke-miterlimit:4;stroke-dasharray:none"
         d="m 100.89425,228.91635 8.15172,-35.14594 c 0,0 1.87088,-9.75534 11.22532,-10.42352 9.35443,-0.66817 36.74956,-7.88445 36.74956,-7.88445 0,0 -5.87994,2.27179 -6.01357,4.40995 -0.13363,2.13816 -0.13363,2.13816 -0.13363,2.13816 0,0 -32.74052,0.93544 -34.34414,4.14267 -4.81085,4.67722 -7.48354,18.17433 -7.48354,18.17433 0,0 -3.34087,15.23437 -0.66818,18.97614 2.6727,3.74177 -7.48354,5.61266 -7.48354,5.61266 z"
         id="path921" />
      <path
         id="path930"
         style="fill:#000000;fill-opacity:1;stroke:#ff0000;stroke-width:0.61881394;stroke-miterlimit:4;stroke-dasharray:none;stroke-opacity:1"
         d="m 57.122981,181.61756 a 21.639137,22.300594 0 0 0 -21.592996,22.30045 21.639137,22.300594 0 0 0 21.638988,22.30096 21.639137,22.300594 0 0 0 19.412768,-12.44937 18.520834,17.670387 0 0 1 -16.483748,9.6144 18.520834,17.670387 0 0 1 -18.520834,-17.67024 18.520834,17.670387 0 0 1 18.520834,-17.67075 18.520834,17.670387 0 0 1 18.520833,17.67075 18.520834,17.670387 0 0 1 -0.101286,1.84692 21.639137,22.300594 0 0 0 0.290422,-3.64267 21.639137,22.300594 0 0 0 -21.638989,-22.30045 21.639137,22.300594 0 0 0 -0.04599,0 z m 21.394559,25.94312 a 21.639137,22.300594 0 0 1 -1.935799,6.20892 18.520834,17.670387 0 0 0 1.935799,-6.20892 z" />
    </g>
  </g>
</svg>
